<svg xmlns="http://www.w3.org/2000/svg" viewBox="0 0 50 40"><defs><style>.cls-3,.cls-4{fill-rule:evenodd}.cls-3{fill:#fdad00}.cls-4{fill:#feeeb7}</style></defs><g id="Layer_1"><path d="M37.4 1.3 25 0 12.6 1.3l-9.7 13L25 40l22.1-25.7z" class="cls-4"/><path d="M11.8 14.3 25 40 2.9 14.3zm26.4 0L25 40l22.1-25.7z" style="fill:#ea6c00;fill-rule:evenodd"/><path d="M11.8 14.3h26.3L24.9 40z" class="cls-3"/><path d="M25 0 12.6 1.3l-.7 12.9zm0 0 12.4 1.3.7 12.9z" style="fill-rule:evenodd;fill:#fdd231"/><path d="m47.1 14.3-9.7-13 .7 12.9H47Zm-44.2 0 9.7-13-.7 12.9h-9Z" class="cls-3"/><path d="M25 0 11.8 14.3h26.3z" class="cls-4"/></g></svg>